<svg viewBox="0 0 20 20" xmlns="http://www.w3.org/2000/svg" xmlns:xlink="http://www.w3.org/1999/xlink" width="20.000000" height="20.000000" fill="none">
	<rect id="3586373-book-education-learning-school_107944 1" width="20.000000" height="20.000000" x="0.000000" y="0.000000" />
	<g id="Группа 2">
		<path id="Вектор 3" d="M18.5061 12.0319L17.032 11.0359L17.032 8.04781L18.5061 7.07171C18.5857 7.01195 18.6455 6.93227 18.6455 6.83267C18.6455 6.73307 18.5857 6.63347 18.5061 6.59363L10.9164 1.49402C10.8168 1.43426 10.6774 1.43426 10.5778 1.49402L1.21522 7.749C1.17538 7.76892 1.15546 7.78885 1.13554 7.82869C1.13554 7.82869 1.13554 7.82869 1.13554 7.84861C1.0957 7.90837 1.0957 7.94821 1.0957 8.00797L1.0957 13.4861C1.0957 13.5857 1.15546 13.6853 1.23515 13.7251L8.82479 18.7849C8.88455 18.8247 8.92439 18.8446 8.98415 18.8446C9.04391 18.8446 9.10367 18.8247 9.14351 18.7849L18.526 12.5299C18.6057 12.4701 18.6654 12.3904 18.6654 12.2908C18.6455 12.1713 18.5857 12.0717 18.5061 12.0319ZM10.7571 2.11155L17.8088 6.81275L16.6535 7.56972C16.5937 7.58964 16.534 7.62948 16.4941 7.66932L8.96423 12.6892L3.30686 8.9243C3.28694 8.90438 3.26702 8.90438 3.26702 8.88446L1.91244 7.98805L10.7571 2.11155ZM3.40646 9.72112L8.78495 13.3068C8.88455 13.3665 9.02399 13.3665 9.12359 13.3068L16.4343 8.42629L16.4343 10.8765L9.00407 15.7769L3.40646 12.1912L3.40646 9.72112ZM8.96423 18.1673L1.67339 13.3068L1.67339 8.56574L2.82877 9.32271L2.82877 12.3506C2.82877 12.4502 2.88853 12.5498 2.96821 12.6096L8.86463 16.3944C8.90447 16.4343 8.96423 16.4343 9.02399 16.4343C9.08375 16.4343 9.14351 16.4143 9.18335 16.3944L16.6336 11.494L17.8088 12.2908L8.96423 18.1673Z" fill="rgb(0,0,0)" fill-rule="nonzero" />
		<path id="Вектор 4" d="M9.46216 4.84063L13.008 7.27091C13.0677 7.31075 13.1275 7.33067 13.1673 7.33067C13.2669 7.33067 13.3466 7.29083 13.4064 7.19123C13.506 7.05178 13.4661 6.8725 13.3267 6.7729L9.8008 4.34262C9.66136 4.24302 9.48208 4.28286 9.38248 4.4223C9.28287 4.56174 9.32271 4.74103 9.46216 4.84063Z" fill="rgb(0,0,0)" fill-rule="nonzero" />
	</g>
</svg>
