<svg viewBox="0 0 80 80" xmlns="http://www.w3.org/2000/svg" xmlns:xlink="http://www.w3.org/1999/xlink" width="80.000000" height="80.000000" fill="none">
	<rect id="образование чтение исследование литература значок 1" width="80.000000" height="80.000000" x="0.000000" y="0.000000" />
	<g id="_x31_4_x2C__books_x2C__library_x2C__literature_x2C__study_x2C__reading_x2C__education">
		<g id="Сочетание 1">
			<g id="Сочетание 2">
				<path id="Форма 1" d="M69.6636 28.802L70.3063 28.802C72.9267 28.802 75.0589 26.67 75.0589 24.0494C75.0589 21.4238 72.9325 19.2967 70.3063 19.2967L67.5769 19.2967C64.7933 16.6919 64.7906 12.268 67.5775 9.66079L70.3069 9.66079C72.927 9.66079 75.0584 7.52922 75.0584 4.90922C75.0584 2.28375 72.9341 0.156097 70.3069 0.156097L36.21 0.156097C35.3472 0.156097 34.6475 0.855629 34.6475 1.7186C34.6475 2.58157 35.3472 3.2811 36.21 3.2811L70.3069 3.2811C71.1933 3.2811 71.9334 3.99829 71.9334 4.90922C71.9334 5.8061 71.2038 6.53579 70.3069 6.53579L19.2647 6.53579C14.8156 6.53579 11.2192 10.198 11.3247 14.6697C11.4261 18.9441 15.042 22.4217 19.3852 22.4217L33.6528 22.4217L33.6528 25.6764L19.2648 25.6764C13.0638 25.6764 8.06641 20.6564 8.06641 14.4795C8.06641 8.30469 13.09 3.2811 19.2648 3.2811L29.9602 3.2811C30.823 3.2811 31.5227 2.58157 31.5227 1.7186C31.5227 0.85563 30.823 0.156098 29.9602 0.156098L19.2648 0.156098C11.3669 0.156098 4.94141 6.58157 4.94141 14.4795C4.94141 18.8856 6.92219 22.9456 10.3358 25.677L9.69453 25.677C7.07391 25.677 4.94188 27.8091 4.94188 30.4297C4.94188 33.0555 7.06828 35.1823 9.69453 35.1823L12.4239 35.1823C15.207 37.7867 15.2103 42.21 12.4244 44.8173L9.69423 44.8173C7.07344 44.8173 4.9411 46.9495 4.9411 49.5705C4.9411 52.1953 7.06876 54.3236 9.69423 54.3236L10.3444 54.3236C7.05376 56.95 4.9411 60.993 4.9411 65.5205C4.9411 73.437 11.3472 79.8439 19.2645 79.8439L70.3067 79.8439C72.9269 79.8439 75.0583 77.7117 75.0583 75.0908C75.0583 72.4805 72.9477 70.3392 70.3067 70.3392L67.5772 70.3392C64.7934 67.7347 64.7902 63.3108 67.5767 60.7033L70.3067 60.7033C72.9269 60.7033 75.0583 58.5711 75.0583 55.9502C75.0583 53.3399 72.9477 51.1986 70.3067 51.1986L69.6553 51.1986C76.7934 45.5005 76.9208 34.6094 69.6636 28.802ZM71.9338 24.0495C71.9338 24.947 71.2036 25.6772 70.3061 25.6772C70.1124 25.6772 52.7656 25.6767 52.728 25.6767L52.728 22.4219C55.8852 22.4219 66.865 22.422 70.3061 22.4219C71.2049 22.4219 71.9338 23.1508 71.9338 24.0495ZM36.7775 16.0417L49.603 16.0417L49.603 36.2278L44.2952 30.92C43.6852 30.3102 42.6958 30.3098 42.0853 30.92L36.7774 36.228L36.7774 16.0417L36.7775 16.0417ZM19.385 19.2969C16.7247 19.2969 14.5103 17.188 14.4486 14.5961C14.3852 11.8892 16.5628 9.6611 19.2645 9.6611L63.6374 9.6611C61.9397 12.6367 61.9369 16.3164 63.637 19.297L52.728 19.297L52.728 16.0419L57.5458 16.0419C58.4086 16.0419 59.1083 15.3424 59.1083 14.4794C59.1083 13.6164 58.4086 12.9169 57.5458 12.9169C54.3352 12.9169 35.2409 12.9169 32.0248 12.9169C31.162 12.9169 30.4623 13.6164 30.4623 14.4794C30.4623 15.3424 31.162 16.0419 32.0248 16.0419L33.6525 16.0419L33.6525 19.2969L19.385 19.2969ZM8.06657 30.4297C8.06657 29.5322 8.79673 28.802 9.69423 28.802L33.6525 28.802L33.6525 32.0572L9.69423 32.0572C8.79563 32.0574 8.06657 31.3284 8.06657 30.4297ZM70.3067 54.3234C71.2152 54.3234 71.9333 55.0619 71.9333 55.95C71.9333 56.8477 71.2036 57.5781 70.3067 57.5781L19.2645 57.5781C14.8216 57.5781 11.217 61.2356 11.3245 65.7116C11.4242 69.9863 15.04 73.4641 19.385 73.4641L25.8459 73.4641C26.7088 73.4641 27.4084 72.7644 27.4084 71.9016C27.4084 71.0387 26.7088 70.3391 25.8459 70.3391L19.385 70.3391C16.7236 70.3391 14.5091 68.2305 14.4486 65.6377C14.3838 62.9292 16.5647 60.7031 19.2645 60.7031L63.637 60.7031C61.9397 63.6784 61.9369 67.3583 63.6374 70.3391L32.0959 70.3391C31.2331 70.3391 30.5334 71.0388 30.5334 71.9016C30.5334 72.7644 31.2331 73.4641 32.0959 73.4641L70.3069 73.4641C71.2153 73.4641 71.9334 74.2025 71.9334 75.0906C71.9334 75.9883 71.2038 76.7188 70.3069 76.7188L19.2647 76.7188C13.0756 76.7188 8.06625 71.7105 8.06625 65.5203C8.06625 59.3463 13.0898 54.3235 19.2647 54.3235C21.4608 54.3234 69.7666 54.3234 70.3067 54.3234ZM9.69423 51.1984C8.7986 51.1984 8.0661 50.4706 8.0661 49.5703C8.0661 48.6727 8.79657 47.9422 9.69423 47.9422C11.4245 47.9422 42.6277 47.9422 44.0489 47.9422C44.9117 47.9422 45.6114 47.2425 45.6114 46.3797C45.6114 45.5169 44.9117 44.8172 44.0489 44.8172L16.3638 44.8172C18.0608 41.842 18.0636 38.1627 16.3634 35.1822L33.6527 35.1822L33.6527 40C33.6527 40.632 34.0334 41.2017 34.6172 41.4436C35.2011 41.6852 35.8733 41.5517 36.32 41.1049L43.1905 34.2344L50.0608 41.1049C50.3597 41.4038 50.7594 41.5625 51.1659 41.5625C52.0244 41.5625 52.7281 40.8661 52.7281 40L52.7281 35.1828L60.6163 35.1828C63.2764 35.1828 65.491 37.2919 65.5527 39.8836C65.6161 42.5855 63.4409 44.8172 60.7366 44.8172L50.2991 44.8172C49.4363 44.8172 48.7366 45.5169 48.7366 46.3797C48.7366 47.2425 49.4363 47.9422 50.2991 47.9422L60.7366 47.9422C65.1952 47.9422 68.7816 44.2708 68.6767 39.8097C68.5752 35.5353 64.9591 32.0578 60.6163 32.0578L52.7281 32.0578L52.7281 28.8022L60.7584 28.8022C66.9003 28.8139 71.9334 33.7853 71.9334 40.0002C71.9334 46.175 66.9106 51.1986 60.7366 51.1986C58.5403 51.1984 10.2345 51.1984 9.69423 51.1984Z" fill="rgb(0,0,0)" fill-rule="nonzero" />
				<path id="Форма 1" d="M69.6636 28.802L70.3063 28.802C72.9267 28.802 75.0589 26.67 75.0589 24.0494C75.0589 21.4238 72.9325 19.2967 70.3063 19.2967L67.5769 19.2967C64.7933 16.6919 64.7906 12.268 67.5775 9.66079L70.3069 9.66079C72.927 9.66079 75.0584 7.52922 75.0584 4.90922C75.0584 2.28375 72.9341 0.156097 70.3069 0.156097L36.21 0.156097C35.3472 0.156097 34.6475 0.855629 34.6475 1.7186C34.6475 2.58157 35.3472 3.2811 36.21 3.2811L70.3069 3.2811C71.1933 3.2811 71.9334 3.99829 71.9334 4.90922C71.9334 5.8061 71.2038 6.53579 70.3069 6.53579L19.2647 6.53579C14.8156 6.53579 11.2192 10.198 11.3247 14.6697C11.4261 18.9441 15.042 22.4217 19.3852 22.4217L33.6528 22.4217L33.6528 25.6764L19.2648 25.6764C13.0638 25.6764 8.06641 20.6564 8.06641 14.4795C8.06641 8.30469 13.09 3.2811 19.2648 3.2811L29.9602 3.2811C30.823 3.2811 31.5227 2.58157 31.5227 1.7186C31.5227 0.85563 30.823 0.156098 29.9602 0.156098L19.2648 0.156098C11.3669 0.156098 4.94141 6.58157 4.94141 14.4795C4.94141 18.8856 6.92219 22.9456 10.3358 25.677L9.69453 25.677C7.07391 25.677 4.94188 27.8091 4.94188 30.4297C4.94188 33.0555 7.06828 35.1823 9.69453 35.1823L12.4239 35.1823C15.207 37.7867 15.2103 42.21 12.4244 44.8173L9.69423 44.8173C7.07344 44.8173 4.9411 46.9495 4.9411 49.5705C4.9411 52.1953 7.06876 54.3236 9.69423 54.3236L10.3444 54.3236C7.05376 56.95 4.9411 60.993 4.9411 65.5205C4.9411 73.437 11.3472 79.8439 19.2645 79.8439L70.3067 79.8439C72.9269 79.8439 75.0583 77.7117 75.0583 75.0908C75.0583 72.4805 72.9477 70.3392 70.3067 70.3392L67.5772 70.3392C64.7934 67.7347 64.7902 63.3108 67.5767 60.7033L70.3067 60.7033C72.9269 60.7033 75.0583 58.5711 75.0583 55.9502C75.0583 53.3399 72.9477 51.1986 70.3067 51.1986L69.6553 51.1986C76.7934 45.5005 76.9208 34.6094 69.6636 28.802ZM71.9338 24.0495C71.9338 24.947 71.2036 25.6772 70.3061 25.6772C70.1124 25.6772 52.7656 25.6767 52.728 25.6767L52.728 22.4219C55.8852 22.4219 66.865 22.422 70.3061 22.4219C71.2049 22.4219 71.9338 23.1508 71.9338 24.0495ZM36.7775 16.0417L49.603 16.0417L49.603 36.2278L44.2952 30.92C43.6852 30.3102 42.6958 30.3098 42.0853 30.92L36.7774 36.228L36.7774 16.0417L36.7775 16.0417ZM19.385 19.2969C16.7247 19.2969 14.5103 17.188 14.4486 14.5961C14.3852 11.8892 16.5628 9.6611 19.2645 9.6611L63.6374 9.6611C61.9397 12.6367 61.9369 16.3164 63.637 19.297L52.728 19.297L52.728 16.0419L57.5458 16.0419C58.4086 16.0419 59.1083 15.3424 59.1083 14.4794C59.1083 13.6164 58.4086 12.9169 57.5458 12.9169C54.3352 12.9169 35.2409 12.9169 32.0248 12.9169C31.162 12.9169 30.4623 13.6164 30.4623 14.4794C30.4623 15.3424 31.162 16.0419 32.0248 16.0419L33.6525 16.0419L33.6525 19.2969L19.385 19.2969ZM8.06657 30.4297C8.06657 29.5322 8.79673 28.802 9.69423 28.802L33.6525 28.802L33.6525 32.0572L9.69423 32.0572C8.79563 32.0574 8.06657 31.3284 8.06657 30.4297ZM70.3067 54.3234C71.2152 54.3234 71.9333 55.0619 71.9333 55.95C71.9333 56.8477 71.2036 57.5781 70.3067 57.5781L19.2645 57.5781C14.8216 57.5781 11.217 61.2356 11.3245 65.7116C11.4242 69.9863 15.04 73.4641 19.385 73.4641L25.8459 73.4641C26.7088 73.4641 27.4084 72.7644 27.4084 71.9016C27.4084 71.0387 26.7088 70.3391 25.8459 70.3391L19.385 70.3391C16.7236 70.3391 14.5091 68.2305 14.4486 65.6377C14.3838 62.9292 16.5647 60.7031 19.2645 60.7031L63.637 60.7031C61.9397 63.6784 61.9369 67.3583 63.6374 70.3391L32.0959 70.3391C31.2331 70.3391 30.5334 71.0388 30.5334 71.9016C30.5334 72.7644 31.2331 73.4641 32.0959 73.4641L70.3069 73.4641C71.2153 73.4641 71.9334 74.2025 71.9334 75.0906C71.9334 75.9883 71.2038 76.7188 70.3069 76.7188L19.2647 76.7188C13.0756 76.7188 8.06625 71.7105 8.06625 65.5203C8.06625 59.3463 13.0898 54.3235 19.2647 54.3235C21.4608 54.3234 69.7666 54.3234 70.3067 54.3234ZM9.69423 51.1984C8.7986 51.1984 8.0661 50.4706 8.0661 49.5703C8.0661 48.6727 8.79657 47.9422 9.69423 47.9422C11.4245 47.9422 42.6277 47.9422 44.0489 47.9422C44.9117 47.9422 45.6114 47.2425 45.6114 46.3797C45.6114 45.5169 44.9117 44.8172 44.0489 44.8172L16.3638 44.8172C18.0608 41.842 18.0636 38.1627 16.3634 35.1822L33.6527 35.1822L33.6527 40C33.6527 40.632 34.0334 41.2017 34.6172 41.4436C35.2011 41.6852 35.8733 41.5517 36.32 41.1049L43.1905 34.2344L50.0608 41.1049C50.3597 41.4038 50.7594 41.5625 51.1659 41.5625C52.0244 41.5625 52.7281 40.8661 52.7281 40L52.7281 35.1828L60.6163 35.1828C63.2764 35.1828 65.491 37.2919 65.5527 39.8836C65.6161 42.5855 63.4409 44.8172 60.7366 44.8172L50.2991 44.8172C49.4363 44.8172 48.7366 45.5169 48.7366 46.3797C48.7366 47.2425 49.4363 47.9422 50.2991 47.9422L60.7366 47.9422C65.1952 47.9422 68.7816 44.2708 68.6767 39.8097C68.5752 35.5353 64.9591 32.0578 60.6163 32.0578L52.7281 32.0578L52.7281 28.8022L60.7584 28.8022C66.9003 28.8139 71.9334 33.7853 71.9334 40.0002C71.9334 46.175 66.9106 51.1986 60.7366 51.1986C58.5403 51.1984 10.2345 51.1984 9.69423 51.1984Z" fill="rgb(255,255,255)" fill-rule="nonzero" />
			</g>
		</g>
	</g>
	<g id="Layer_1" />
</svg>
