<svg viewBox="0 0 70.1178 79.6878" xmlns="http://www.w3.org/2000/svg" xmlns:xlink="http://www.w3.org/1999/xlink" width="70.117798" height="79.687836" fill="none" customFrame="#000000">
	<path id="Форма 1" d="M64.7225 28.6459L65.3652 28.6459C67.9856 28.6459 70.1178 26.5139 70.1178 23.8933C70.1178 21.2677 67.9914 19.1406 65.3652 19.1406L62.6358 19.1406C59.8522 16.5358 59.8495 12.1119 62.6364 9.50469L65.3658 9.50469C67.9859 9.50469 70.1173 7.37313 70.1173 4.75313C70.1173 2.12766 67.993 0 65.3658 0L31.2689 0C30.4061 0 29.7064 0.699531 29.7064 1.5625C29.7064 2.42547 30.4061 3.125 31.2689 3.125L65.3658 3.125C66.2522 3.125 66.9923 3.84219 66.9923 4.75313C66.9923 5.65 66.2627 6.37969 65.3658 6.37969L14.3236 6.37969C9.87453 6.37969 6.27812 10.0419 6.38359 14.5136C6.485 18.788 10.1009 22.2656 14.4441 22.2656L28.7117 22.2656L28.7117 25.5203L14.3237 25.5203C8.12265 25.5203 3.12531 20.5003 3.12531 14.3234C3.12531 8.14859 8.1489 3.125 14.3237 3.125L25.0191 3.125C25.8819 3.125 26.5816 2.42547 26.5816 1.5625C26.5816 0.699532 25.8819 8.9407e-07 25.0191 8.9407e-07L14.3237 8.9407e-07C6.42578 8.9407e-07 0.000307858 6.42547 0.000307858 14.3234C0.000307858 18.7295 1.98109 22.7895 5.39468 25.5209L4.75343 25.5209C2.13281 25.5209 0.000776947 27.653 0.000776947 30.2736C0.000776947 32.8994 2.12718 35.0262 4.75343 35.0262L7.48281 35.0262C10.2659 37.6306 10.2692 42.0539 7.48328 44.6613L4.75313 44.6613C2.13234 44.6613 0 46.7934 0 49.4144C0 52.0392 2.12766 54.1675 4.75313 54.1675L5.40328 54.1675C2.11266 56.7939 2.98023e-07 60.8369 2.98023e-07 65.3644C2.98023e-07 73.2809 6.40609 79.6878 14.3234 79.6878L65.3656 79.6878C67.9858 79.6878 70.1172 77.5556 70.1172 74.9347C70.1172 72.3244 68.0066 70.1831 65.3656 70.1831L62.6361 70.1831C59.8523 67.5786 59.8491 63.1547 62.6356 60.5472L65.3656 60.5472C67.9858 60.5472 70.1172 58.415 70.1172 55.7941C70.1172 53.1838 68.0066 51.0425 65.3656 51.0425L64.7142 51.0425C71.8523 45.3444 71.9797 34.4533 64.7225 28.6459ZM66.9927 23.8934C66.9927 24.7909 66.2625 25.5211 65.365 25.5211C65.1713 25.5211 47.8245 25.5206 47.7869 25.5206L47.7869 22.2658C50.9441 22.2658 61.9239 22.2659 65.365 22.2658C66.2638 22.2658 66.9927 22.9947 66.9927 23.8934ZM31.8364 15.8856L44.6619 15.8856L44.6619 36.0717L39.3541 30.7639C38.7441 30.1541 37.7547 30.1538 37.1442 30.7639L31.8363 36.0719L31.8363 15.8856L31.8364 15.8856ZM14.4439 19.1408C11.7836 19.1408 9.56922 17.0319 9.5075 14.44C9.44406 11.7331 11.6217 9.505 14.3234 9.505L58.6963 9.505C56.9986 12.4806 56.9958 16.1603 58.6959 19.1409L47.7869 19.1409L47.7869 15.8858L52.6047 15.8858C53.4675 15.8858 54.1672 15.1863 54.1672 14.3233C54.1672 13.4603 53.4675 12.7608 52.6047 12.7608C49.3941 12.7608 30.2998 12.7608 27.0837 12.7608C26.2209 12.7608 25.5212 13.4603 25.5212 14.3233C25.5212 15.1863 26.2209 15.8858 27.0837 15.8858L28.7114 15.8858L28.7114 19.1408L14.4439 19.1408ZM3.12547 30.2736C3.12547 29.3761 3.85563 28.6459 4.75313 28.6459L28.7114 28.6459L28.7114 31.9011L4.75313 31.9011C3.85453 31.9013 3.12547 31.1723 3.12547 30.2736ZM65.3656 54.1673C66.2741 54.1673 66.9922 54.9058 66.9922 55.7939C66.9922 56.6916 66.2625 57.422 65.3656 57.422L14.3234 57.422C9.88047 57.422 6.27594 61.0795 6.38344 65.5555C6.48312 69.8302 10.0989 73.308 14.4439 73.308L20.9048 73.308C21.7677 73.308 22.4673 72.6083 22.4673 71.7455C22.4673 70.8827 21.7677 70.183 20.9048 70.183L14.4439 70.183C11.7825 70.183 9.56797 68.0744 9.5075 65.4816C9.44266 62.7731 11.6236 60.547 14.3234 60.547L58.6959 60.547C56.9986 63.5223 56.9958 67.2022 58.6963 70.183L27.1548 70.183C26.292 70.183 25.5923 70.8827 25.5923 71.7455C25.5923 72.6083 26.292 73.308 27.1548 73.308L65.3658 73.308C66.2742 73.308 66.9923 74.0464 66.9923 74.9345C66.9923 75.8322 66.2627 76.5627 65.3658 76.5627L14.3236 76.5627C8.13453 76.5627 3.12515 71.5544 3.12515 65.3642C3.12515 59.1902 8.14875 54.1674 14.3236 54.1674C16.5197 54.1674 64.8255 54.1673 65.3656 54.1673ZM4.75313 51.0423C3.8575 51.0423 3.125 50.3145 3.125 49.4142C3.125 48.5166 3.85547 47.7861 4.75313 47.7861C6.48344 47.7861 37.6866 47.7861 39.1078 47.7861C39.9706 47.7861 40.6703 47.0864 40.6703 46.2236C40.6703 45.3608 39.9706 44.6611 39.1078 44.6611L11.4227 44.6611C13.1197 41.6859 13.1225 38.0066 11.4223 35.0261L28.7116 35.0261L28.7116 39.8439C28.7116 40.4759 29.0923 41.0456 29.6761 41.2875C30.26 41.5291 30.9322 41.3956 31.3789 40.9488L38.2494 34.0783L45.1197 40.9488C45.4186 41.2477 45.8183 41.4064 46.2248 41.4064C47.0833 41.4064 47.787 40.71 47.787 39.8439L47.787 35.0267L55.6752 35.0267C58.3353 35.0267 60.5498 37.1358 60.6116 39.7275C60.675 42.4294 58.4998 44.6611 55.7955 44.6611L45.358 44.6611C44.4952 44.6611 43.7955 45.3608 43.7955 46.2236C43.7955 47.0864 44.4952 47.7861 45.358 47.7861L55.7955 47.7861C60.2541 47.7861 63.8405 44.1147 63.7356 39.6536C63.6341 35.3792 60.018 31.9017 55.6752 31.9017L47.787 31.9017L47.787 28.6461L55.8173 28.6461C61.9592 28.6578 66.9923 33.6292 66.9923 39.8441C66.9923 46.0189 61.9695 51.0425 55.7955 51.0425C53.5992 51.0423 5.29344 51.0423 4.75313 51.0423Z" fill="rgb(0,0,0)" fill-rule="nonzero" />
	<path id="Форма 1" d="M64.7225 28.6459L65.3652 28.6459C67.9856 28.6459 70.1178 26.5139 70.1178 23.8933C70.1178 21.2677 67.9914 19.1406 65.3652 19.1406L62.6358 19.1406C59.8522 16.5358 59.8495 12.1119 62.6364 9.50469L65.3658 9.50469C67.9859 9.50469 70.1173 7.37313 70.1173 4.75313C70.1173 2.12766 67.993 0 65.3658 0L31.2689 0C30.4061 0 29.7064 0.699531 29.7064 1.5625C29.7064 2.42547 30.4061 3.125 31.2689 3.125L65.3658 3.125C66.2522 3.125 66.9923 3.84219 66.9923 4.75313C66.9923 5.65 66.2627 6.37969 65.3658 6.37969L14.3236 6.37969C9.87453 6.37969 6.27812 10.0419 6.38359 14.5136C6.485 18.788 10.1009 22.2656 14.4441 22.2656L28.7117 22.2656L28.7117 25.5203L14.3237 25.5203C8.12265 25.5203 3.12531 20.5003 3.12531 14.3234C3.12531 8.14859 8.1489 3.125 14.3237 3.125L25.0191 3.125C25.8819 3.125 26.5816 2.42547 26.5816 1.5625C26.5816 0.699532 25.8819 8.9407e-07 25.0191 8.9407e-07L14.3237 8.9407e-07C6.42578 8.9407e-07 0.000307858 6.42547 0.000307858 14.3234C0.000307858 18.7295 1.98109 22.7895 5.39468 25.5209L4.75343 25.5209C2.13281 25.5209 0.000776947 27.653 0.000776947 30.2736C0.000776947 32.8994 2.12718 35.0262 4.75343 35.0262L7.48281 35.0262C10.2659 37.6306 10.2692 42.0539 7.48328 44.6613L4.75313 44.6613C2.13234 44.6613 0 46.7934 0 49.4144C0 52.0392 2.12766 54.1675 4.75313 54.1675L5.40328 54.1675C2.11266 56.7939 2.98023e-07 60.8369 2.98023e-07 65.3644C2.98023e-07 73.2809 6.40609 79.6878 14.3234 79.6878L65.3656 79.6878C67.9858 79.6878 70.1172 77.5556 70.1172 74.9347C70.1172 72.3244 68.0066 70.1831 65.3656 70.1831L62.6361 70.1831C59.8523 67.5786 59.8491 63.1547 62.6356 60.5472L65.3656 60.5472C67.9858 60.5472 70.1172 58.415 70.1172 55.7941C70.1172 53.1838 68.0066 51.0425 65.3656 51.0425L64.7142 51.0425C71.8523 45.3444 71.9797 34.4533 64.7225 28.6459ZM66.9927 23.8934C66.9927 24.7909 66.2625 25.5211 65.365 25.5211C65.1713 25.5211 47.8245 25.5206 47.7869 25.5206L47.7869 22.2658C50.9441 22.2658 61.9239 22.2659 65.365 22.2658C66.2638 22.2658 66.9927 22.9947 66.9927 23.8934ZM31.8364 15.8856L44.6619 15.8856L44.6619 36.0717L39.3541 30.7639C38.7441 30.1541 37.7547 30.1538 37.1442 30.7639L31.8363 36.0719L31.8363 15.8856L31.8364 15.8856ZM14.4439 19.1408C11.7836 19.1408 9.56922 17.0319 9.5075 14.44C9.44406 11.7331 11.6217 9.505 14.3234 9.505L58.6963 9.505C56.9986 12.4806 56.9958 16.1603 58.6959 19.1409L47.7869 19.1409L47.7869 15.8858L52.6047 15.8858C53.4675 15.8858 54.1672 15.1863 54.1672 14.3233C54.1672 13.4603 53.4675 12.7608 52.6047 12.7608C49.3941 12.7608 30.2998 12.7608 27.0837 12.7608C26.2209 12.7608 25.5212 13.4603 25.5212 14.3233C25.5212 15.1863 26.2209 15.8858 27.0837 15.8858L28.7114 15.8858L28.7114 19.1408L14.4439 19.1408ZM3.12547 30.2736C3.12547 29.3761 3.85563 28.6459 4.75313 28.6459L28.7114 28.6459L28.7114 31.9011L4.75313 31.9011C3.85453 31.9013 3.12547 31.1723 3.12547 30.2736ZM65.3656 54.1673C66.2741 54.1673 66.9922 54.9058 66.9922 55.7939C66.9922 56.6916 66.2625 57.422 65.3656 57.422L14.3234 57.422C9.88047 57.422 6.27594 61.0795 6.38344 65.5555C6.48312 69.8302 10.0989 73.308 14.4439 73.308L20.9048 73.308C21.7677 73.308 22.4673 72.6083 22.4673 71.7455C22.4673 70.8827 21.7677 70.183 20.9048 70.183L14.4439 70.183C11.7825 70.183 9.56797 68.0744 9.5075 65.4816C9.44266 62.7731 11.6236 60.547 14.3234 60.547L58.6959 60.547C56.9986 63.5223 56.9958 67.2022 58.6963 70.183L27.1548 70.183C26.292 70.183 25.5923 70.8827 25.5923 71.7455C25.5923 72.6083 26.292 73.308 27.1548 73.308L65.3658 73.308C66.2742 73.308 66.9923 74.0464 66.9923 74.9345C66.9923 75.8322 66.2627 76.5627 65.3658 76.5627L14.3236 76.5627C8.13453 76.5627 3.12515 71.5544 3.12515 65.3642C3.12515 59.1902 8.14875 54.1674 14.3236 54.1674C16.5197 54.1674 64.8255 54.1673 65.3656 54.1673ZM4.75313 51.0423C3.8575 51.0423 3.125 50.3145 3.125 49.4142C3.125 48.5166 3.85547 47.7861 4.75313 47.7861C6.48344 47.7861 37.6866 47.7861 39.1078 47.7861C39.9706 47.7861 40.6703 47.0864 40.6703 46.2236C40.6703 45.3608 39.9706 44.6611 39.1078 44.6611L11.4227 44.6611C13.1197 41.6859 13.1225 38.0066 11.4223 35.0261L28.7116 35.0261L28.7116 39.8439C28.7116 40.4759 29.0923 41.0456 29.6761 41.2875C30.26 41.5291 30.9322 41.3956 31.3789 40.9488L38.2494 34.0783L45.1197 40.9488C45.4186 41.2477 45.8183 41.4064 46.2248 41.4064C47.0833 41.4064 47.787 40.71 47.787 39.8439L47.787 35.0267L55.6752 35.0267C58.3353 35.0267 60.5498 37.1358 60.6116 39.7275C60.675 42.4294 58.4998 44.6611 55.7955 44.6611L45.358 44.6611C44.4952 44.6611 43.7955 45.3608 43.7955 46.2236C43.7955 47.0864 44.4952 47.7861 45.358 47.7861L55.7955 47.7861C60.2541 47.7861 63.8405 44.1147 63.7356 39.6536C63.6341 35.3792 60.018 31.9017 55.6752 31.9017L47.787 31.9017L47.787 28.6461L55.8173 28.6461C61.9592 28.6578 66.9923 33.6292 66.9923 39.8441C66.9923 46.0189 61.9695 51.0425 55.7955 51.0425C53.5992 51.0423 5.29344 51.0423 4.75313 51.0423Z" fill="rgb(255,255,255)" fill-rule="nonzero" />
</svg>
