<?xml version="1.0" ?><svg xmlns="http://www.w3.org/2000/svg" xmlns:xlink="http://www.w3.org/1999/xlink" version="1.1" viewBox="0 0 512 512" style="enable-background:new 0 0 512 512;" xml:space="preserve"><g id="_x31_4_x2C__books_x2C__library_x2C__literature_x2C__study_x2C__reading_x2C__education"><g><g><path d="M445.847,184.333h4.113c16.771,0,30.417-13.645,30.417-30.417c0-16.804-13.609-30.417-30.417-30.417h-17.468     c-17.815-16.671-17.832-44.984,0.004-61.67h17.468c16.769,0,30.41-13.642,30.41-30.41c0-16.803-13.596-30.42-30.41-30.42h-218.22     c-5.522,0-10,4.477-10,10s4.478,10,10,10h218.22c5.673,0,10.41,4.59,10.41,10.42c0,5.74-4.67,10.41-10.41,10.41h-326.67     c-28.474,0-51.491,23.438-50.816,52.057c0.649,27.356,23.791,49.613,51.587,49.613h91.313v20.83h-92.083     c-39.687,0-71.67-32.128-71.67-71.66c0-39.519,32.151-71.67,71.67-71.67h68.45c5.522,0,10-4.477,10-10s-4.478-10-10-10h-68.45     c-50.547,0-91.67,41.123-91.67,91.67c0,28.199,12.677,54.183,34.524,71.664h-4.104c-16.772,0-30.417,13.645-30.417,30.417     c0,16.805,13.609,30.417,30.417,30.417h17.468c17.812,16.668,17.833,44.977,0.003,61.664H62.043     c-16.773,0-30.42,13.646-30.42,30.42c0,16.799,13.617,30.42,30.42,30.42h4.161c-21.06,16.809-34.581,42.684-34.581,71.66     c0,50.666,40.999,91.67,91.67,91.67h326.67c16.769,0,30.41-13.646,30.41-30.42c0-16.706-13.508-30.41-30.41-30.41h-17.469     c-17.816-16.669-17.837-44.982-0.003-61.67h17.472c16.769,0,30.41-13.646,30.41-30.42c0-16.706-13.508-30.41-30.41-30.41h-4.169     C491.478,291.203,492.293,221.5,445.847,184.333z M460.376,153.917c0,5.744-4.673,10.417-10.417,10.417     c-1.24,0-112.259-0.003-112.5-0.003V143.5c20.206,0,90.477,0.001,112.5,0C455.711,143.5,460.376,148.165,460.376,153.917z      M235.376,102.667h82.083v129.191l-33.97-33.97c-3.904-3.903-10.236-3.905-14.143,0l-33.971,33.971V102.667z M124.064,123.5     c-17.026,0-31.198-13.497-31.593-30.085c-0.406-17.324,13.531-31.584,30.822-31.584h283.986     c-10.865,19.044-10.883,42.594-0.002,61.67h-69.818v-20.833h30.834c5.522,0,10-4.477,10-10s-4.478-10-10-10     c-20.548,0-142.751,0-163.334,0c-5.522,0-10,4.477-10,10s4.478,10,10,10h10.417V123.5H124.064z M51.626,194.75     c0-5.744,4.673-10.417,10.417-10.417h153.333v20.833H62.043C56.292,205.167,51.626,200.502,51.626,194.75z M449.963,347.67     c5.814,0,10.41,4.726,10.41,10.41c0,5.745-4.67,10.42-10.41,10.42h-326.67c-28.435,0-51.504,23.408-50.816,52.054     c0.638,27.358,23.779,49.616,51.587,49.616h41.35c5.522,0,10-4.478,10-10s-4.478-10-10-10h-41.35     c-17.033,0-31.206-13.495-31.593-30.089c-0.415-17.334,13.543-31.581,30.822-31.581h283.984     c-10.863,19.042-10.881,42.593,0.002,61.67H205.414c-5.522,0-10,4.478-10,10s4.478,10,10,10h244.55     c5.814,0,10.41,4.726,10.41,10.41c0,5.745-4.67,10.42-10.41,10.42h-326.67c-39.61,0-71.67-32.053-71.67-71.67     c0-39.514,32.151-71.66,71.67-71.66C137.349,347.67,446.506,347.67,449.963,347.67z M62.043,327.67     c-5.732,0-10.42-4.658-10.42-10.42c0-5.745,4.675-10.42,10.42-10.42c11.074,0,210.774,0,219.87,0c5.522,0,10-4.478,10-10     s-4.478-10-10-10H104.728c10.861-19.041,10.879-42.589-0.002-61.664h110.651V256c0,4.045,2.437,7.691,6.173,9.239     c3.737,1.546,8.039,0.692,10.898-2.168l43.971-43.971l43.97,43.971c1.913,1.913,4.471,2.929,7.073,2.929     c5.494,0,9.998-4.457,9.998-10v-30.83h50.484c17.025,0,31.198,13.498,31.593,30.085c0.406,17.292-13.515,31.575-30.823,31.575     h-66.8c-5.522,0-10,4.478-10,10s4.478,10,10,10h66.8c28.535,0,51.488-23.497,50.817-52.048     c-0.65-27.356-23.793-49.612-51.587-49.612h-50.484v-20.836h51.394c39.308,0.075,71.52,31.892,71.52,71.667     c0,39.519-32.146,71.67-71.66,71.67C374.658,327.67,65.501,327.67,62.043,327.67z"/></g></g></g><g id="Layer_1"/></svg>