<svg viewBox="0 0 60 60" xmlns="http://www.w3.org/2000/svg" xmlns:xlink="http://www.w3.org/1999/xlink" width="60.000000" height="60.000000" fill="none">
	<rect id="mail_icon-icons.com_71147 1" width="60.000000" height="60.000000" x="0.000000" y="0.000000" />
	<g id="Сочетание 19">
		<path id="Форма 3" d="M30 0C13.4314 0 0 13.4314 0 30C0 46.5686 13.4314 60 30 60C46.5686 60 60 46.5686 60 30C60 13.4314 46.5686 0 30 0ZM15 15L45 15C45.5353 15 46.0549 15.115 46.5319 15.3318L30 34.6189L13.4681 15.3316C13.9451 15.1151 14.4646 15 15 15ZM11.25 41.25L11.25 18.75C11.25 18.6715 11.2533 18.5934 11.2582 18.5156L22.2541 31.3443L11.3793 42.2191C11.2946 41.9065 11.25 41.5813 11.25 41.25ZM45 45L15 45C14.6687 45 14.3436 44.9553 14.0309 44.8706L24.7018 34.1994L30 40.3812L35.2984 34.1999L45.9691 44.871C45.6562 44.9553 45.3312 45 45 45ZM48.75 41.25C48.75 41.5813 48.7053 41.9062 48.6206 42.2191L37.7455 31.3443L48.7418 18.5156C48.7468 18.5934 48.75 18.6715 48.75 18.75L48.75 41.25Z" fill="rgb(0,0,0)" fill-rule="nonzero" />
	</g>
	<g id="Сочетание 20" />
	<g id="Сочетание 21" />
	<g id="Сочетание 22" />
	<g id="Сочетание 23" />
	<g id="Сочетание 24" />
	<g id="Сочетание 25" />
	<g id="Сочетание 26" />
	<g id="Сочетание 27" />
	<g id="Сочетание 28" />
	<g id="Сочетание 29" />
	<g id="Сочетание 30" />
	<g id="Сочетание 31" />
	<g id="Сочетание 32" />
	<g id="Сочетание 33" />
	<g id="Сочетание 34" />
</svg>
