<svg viewBox="0 0 20 20" xmlns="http://www.w3.org/2000/svg" xmlns:xlink="http://www.w3.org/1999/xlink" width="20.000000" height="20.000000" fill="none">
	<rect id="3643745-human-man-people-person-profile_113435 1" width="20.000000" height="20.000000" x="0.000000" y="0.000000" />
	<g id="Layer_19">
		<path id="Вектор 5" d="M10 10.625C9.0111 10.625 8.0444 10.3318 7.22215 9.78235C6.39991 9.23294 5.75904 8.45205 5.3806 7.53842C5.00217 6.62479 4.90315 5.61946 5.09608 4.64955C5.289 3.67965 5.76521 2.78873 6.46447 2.08947C7.16373 1.39021 8.05465 0.914002 9.02455 0.721076C9.99446 0.52815 10.9998 0.627167 11.9134 1.00561C12.8271 1.38404 13.6079 2.02491 14.1574 2.84715C14.7068 3.6694 15 4.63609 15 5.625C15 6.50269 14.769 7.36491 14.3301 8.125C13.8913 8.8851 13.2601 9.51629 12.5 9.95513C11.7399 10.394 10.8777 10.625 10 10.625ZM10 1.875C9.25832 1.875 8.5333 2.09494 7.91661 2.50699C7.29993 2.91905 6.81928 3.50472 6.53545 4.18994C6.25163 4.87516 6.17736 5.62916 6.32206 6.35659C6.46675 7.08402 6.8239 7.75221 7.34835 8.27665C7.8728 8.8011 8.54098 9.15825 9.26841 9.30295C9.99584 9.44764 10.7498 9.37338 11.4351 9.08955C12.1203 8.80572 12.706 8.32508 13.118 7.70839C13.5301 7.09171 13.75 6.36668 13.75 5.625C13.75 4.96674 13.5767 4.32007 13.2476 3.75C12.9185 3.17993 12.4451 2.70654 11.875 2.37741C11.3049 2.04828 10.6583 1.875 10 1.875Z" fill="rgb(16,24,32)" fill-rule="nonzero" />
		<path id="Вектор 6" d="M14.375 19.375L5.625 19.375C5.07645 19.375 4.53756 19.2306 4.0625 18.9563C3.58744 18.682 3.19295 18.2876 2.91867 17.8125C2.64439 17.3374 2.5 16.7985 2.5 16.25L2.5 13.75C2.50002 13.6415 2.52826 13.5349 2.58196 13.4407C2.63566 13.3465 2.71295 13.2678 2.80625 13.2125L5.93125 11.3375C6.04358 11.2867 6.16842 11.2703 6.29006 11.2903C6.4117 11.3103 6.52471 11.3658 6.61487 11.4499C6.70503 11.534 6.76832 11.6428 6.79677 11.7628C6.82522 11.8827 6.81757 12.0084 6.77477 12.124C6.73198 12.2396 6.65595 12.34 6.55625 12.4125L3.75 14.1062L3.75 16.25C3.75 16.5791 3.83664 16.9025 4.0012 17.1875C4.16577 17.4725 4.40246 17.7092 4.6875 17.8738C4.97254 18.0384 5.29587 18.125 5.625 18.125L14.375 18.125C14.7041 18.125 15.0275 18.0384 15.3125 17.8738C15.5975 17.7092 15.8342 17.4725 15.9988 17.1875C16.1634 16.9025 16.25 16.5791 16.25 16.25L16.25 14.1062L13.4312 12.4125C13.3247 12.3643 13.2338 12.2872 13.1688 12.19C13.1039 12.0927 13.0676 11.9792 13.0639 11.8623C13.0603 11.7455 13.0896 11.6299 13.1483 11.5288C13.2071 11.4277 13.2931 11.3451 13.3964 11.2905C13.4998 11.2358 13.6164 11.2112 13.7331 11.2195C13.8497 11.2278 13.9617 11.2687 14.0562 11.3375L17.1812 13.2125C17.2769 13.2662 17.3567 13.3442 17.4126 13.4385C17.4686 13.5329 17.4987 13.6403 17.5 13.75L17.5 16.25C17.5 16.7985 17.3556 17.3374 17.0813 17.8125C16.8071 18.2876 16.4126 18.682 15.9375 18.9563C15.4624 19.2306 14.9236 19.375 14.375 19.375Z" fill="rgb(16,24,32)" fill-rule="nonzero" />
	</g>
</svg>
