<svg viewBox="0 0 49.9998 49.9998" xmlns="http://www.w3.org/2000/svg" xmlns:xlink="http://www.w3.org/1999/xlink" width="49.999756" height="49.999817" fill="none" customFrame="#000000">
	<path id="Форма 2" d="M48.7761 42.8671L37.9139 32.0051C37.8562 31.9474 37.7885 31.9071 37.7282 31.8533C39.8655 28.6112 41.1129 24.7302 41.1129 20.5567C41.1129 9.20348 31.9094 0 20.5565 0C9.20348 0 0 9.20348 0 20.5565C0 31.9092 9.20328 41.1129 20.5563 41.1129C24.73 41.1129 28.6108 39.8655 31.8529 37.7282C31.9067 37.7883 31.9468 37.856 32.0045 37.9137L42.8669 48.7761C44.4987 50.4077 47.1442 50.4077 48.7761 48.7761C50.4077 47.1444 50.4077 44.4989 48.7761 42.8671ZM20.5565 33.9866C13.139 33.9866 7.12608 27.9738 7.12608 20.5565C7.12608 13.1389 13.1391 7.12608 20.5565 7.12608C27.9736 7.12608 33.9866 13.1391 33.9866 20.5565C33.9866 27.9738 27.9736 33.9866 20.5565 33.9866Z" fill="rgb(48,213,200)" fill-rule="evenodd" />
</svg>
