<svg viewBox="0 0 50 50" xmlns="http://www.w3.org/2000/svg" xmlns:xlink="http://www.w3.org/1999/xlink" width="50.000000" height="50.000000" fill="none">
	<rect id="user_person_profile_avatar_icon_190943 1" width="50.000000" height="50.000000" x="0.000000" y="0.000000" />
	<path id="Вектор 7" d="M25 1C20.2533 1 15.6131 2.40757 11.6663 5.04473C7.71955 7.68188 4.64341 11.4302 2.8269 15.8156C1.0104 20.201 0.535118 25.0266 1.46116 29.6822C2.38721 34.3377 4.67299 38.6141 8.02945 41.9706C11.3859 45.327 15.6623 47.6128 20.3178 48.5388C24.9734 49.4649 29.799 48.9896 34.1844 47.1731C38.5698 45.3566 42.3181 42.2805 44.9553 38.3337C47.5924 34.3869 49 29.7468 49 25C49 20.7871 47.8911 16.6485 45.7846 13C43.6782 9.35154 40.6485 6.32183 37 4.21539C33.3516 2.10895 29.2129 1 25 1ZM25 47C20.6488 47 16.3953 45.7097 12.7775 43.2923C9.15959 40.8749 6.33979 37.439 4.67466 33.419C3.00954 29.3991 2.57386 24.9756 3.42274 20.708C4.27161 16.4404 6.36691 12.5204 9.44366 9.44365C12.5204 6.3669 16.4404 4.2716 20.708 3.42272C24.9756 2.57385 29.3991 3.00952 33.4191 4.67465C37.439 6.33978 40.875 9.15957 43.2923 12.7775C45.7097 16.3953 47 20.6488 47 25C47 28.8618 45.9835 32.6556 44.0526 36C42.1217 39.3444 39.3444 42.1217 36 44.0526C32.6556 45.9835 28.8618 47 25 47Z" fill="rgb(0,0,0)" fill-rule="nonzero" />
	<path id="Вектор 8" d="M25 25.41C22.718 25.41 20.4762 26.0107 18.5 27.1517C16.5238 28.2927 14.8827 29.9338 13.7417 31.91C12.6007 33.8863 12 36.128 12 38.41C12 38.6212 12.0669 38.8269 12.191 38.9978C12.3151 39.1686 12.4901 39.2958 12.691 39.3611C12.8918 39.4263 13.1082 39.4263 13.309 39.3611C13.5099 39.2958 13.6849 39.1686 13.809 38.9978C13.9331 38.8269 14 38.6212 14 38.41C14 36.087 14.7354 33.8237 16.1008 31.9444C17.4662 30.065 19.3915 28.6662 21.6008 27.9484C23.8101 27.2305 26.1899 27.2305 28.3992 27.9484C30.6085 28.6662 32.5338 30.065 33.8992 31.9444C35.2646 33.8237 36 36.087 36 38.41C36 38.6212 36.0669 38.8269 36.191 38.9978C36.3151 39.1686 36.4901 39.2958 36.691 39.3611C36.8918 39.4263 37.1082 39.4263 37.309 39.3611C37.5099 39.2958 37.6849 39.1686 37.809 38.9978C37.9331 38.8269 38 38.6212 38 38.41C38 36.128 37.3993 33.8863 36.2583 31.91C35.1173 29.9338 33.4762 28.2927 31.5 27.1517C29.5238 26.0107 27.282 25.41 25 25.41Z" fill="rgb(0,0,0)" fill-rule="nonzero" />
	<path id="Вектор 9" d="M25 23.71C26.2301 23.6771 27.4297 23.3206 28.4781 22.6763C29.5264 22.032 30.3864 21.1227 30.9714 20.0402C31.5563 18.9576 31.8456 17.74 31.81 16.51C31.8474 15.2789 31.5593 14.0597 30.9748 12.9756C30.3903 11.8914 29.5301 10.9807 28.481 10.3354C27.432 9.68999 26.2312 9.33285 25 9.29999C23.7688 9.33285 22.568 9.68999 21.519 10.3354C20.4699 10.9807 19.6097 11.8914 19.0252 12.9756C18.4407 14.0597 18.1526 15.2789 18.19 16.51C18.1544 17.74 18.4437 18.9576 19.0286 20.0402C19.6136 21.1227 20.4736 22.032 21.5219 22.6763C22.5703 23.3206 23.7699 23.6771 25 23.71ZM25 11.3C25.8802 11.3327 26.7362 11.5973 27.4813 12.0671C28.2264 12.5369 28.8342 13.1952 29.2431 13.9754C29.652 14.7556 29.8476 15.6299 29.81 16.51C29.8458 17.3889 29.6491 18.2618 29.2397 19.0404C28.8303 19.819 28.2227 20.4758 27.4783 20.9445C26.7339 21.4132 25.8791 21.6773 25 21.71C24.1209 21.6773 23.266 21.4132 22.5217 20.9445C21.7773 20.4758 21.1697 19.819 20.7603 19.0404C20.3509 18.2618 20.1542 17.3889 20.19 16.51C20.1524 15.6299 20.3479 14.7556 20.7569 13.9754C21.1658 13.1952 21.7736 12.5369 22.5187 12.0671C23.2638 11.5973 24.1198 11.3327 25 11.3Z" fill="rgb(0,0,0)" fill-rule="nonzero" />
</svg>
