<svg viewBox="0 0 60 60" xmlns="http://www.w3.org/2000/svg" xmlns:xlink="http://www.w3.org/1999/xlink" width="60.000000" height="60.000000" fill="none">
	<rect id="vk_icon_194156 1" width="60.000000" height="60.000000" x="0.000000" y="0.000000" />
	<path id="Форма 4" d="M30 0C13.4314 0 0 13.4314 0 30C0 46.5686 13.4314 60 30 60C46.5686 60 60 46.5686 60 30C60 13.4314 46.5686 0 30 0ZM45.98 40.1836L42.1732 40.1836C41.7609 40.1841 41.3538 40.0916 40.9821 39.9131C40.6105 39.7345 40.2839 39.4745 40.0266 39.1523C38.8849 37.719 36.6359 35.1776 34.2744 34.086C34.1376 34.0219 33.9869 33.9934 33.8362 34.0031C33.6855 34.0127 33.5397 34.0602 33.4122 34.1411C33.2847 34.222 33.1796 34.3338 33.1067 34.4661C33.0339 34.5983 32.9955 34.7468 32.9952 34.8979L32.9952 38.6629C32.9953 38.9298 32.925 39.192 32.7916 39.4232C32.6582 39.6544 32.4663 39.8464 32.2351 39.9798C32.004 40.1133 31.7417 40.1836 31.4748 40.1836L29.7145 40.1836C27.4254 40.1836 22.4958 38.7901 18.5678 33.0681C15.2209 28.1931 13.729 24.415 12.859 21.3517C12.7913 21.1115 12.7998 20.8562 12.8832 20.6209C12.9666 20.3857 13.1209 20.1822 13.3248 20.0382C13.5287 19.8943 13.7721 19.8172 14.0217 19.8173L17.8727 19.8173C18.1276 19.8171 18.3796 19.8715 18.6118 19.9769C18.8439 20.0823 19.0507 20.2361 19.2184 20.4282C19.386 20.6202 19.5106 20.8459 19.5837 21.0901C20.2998 23.4853 22.1546 28.6522 25.4333 31.2252C25.5333 31.304 25.6534 31.3531 25.78 31.3668C25.9065 31.3806 26.0344 31.3584 26.1489 31.3029C26.2635 31.2474 26.3601 31.1608 26.4278 31.053C26.4954 30.9451 26.5314 30.8205 26.5315 30.6932L26.5315 24.662C26.5315 23.4701 26.0149 22.2776 25.2087 21.3456C25.0925 21.2119 25.0172 21.0477 24.9918 20.8724C24.9664 20.6971 24.992 20.5182 25.0654 20.3571C25.1389 20.1959 25.2571 20.0593 25.4061 19.9635C25.555 19.8677 25.7284 19.8168 25.9055 19.8168L31.8429 19.8168C32.0452 19.8168 32.2441 19.87 32.4193 19.9712C32.5946 20.0724 32.7401 20.2179 32.8413 20.3931C32.9425 20.5684 32.9958 20.7672 32.9958 20.9695L32.9958 29.0936C32.9958 29.2112 33.0282 29.3265 33.0894 29.4269C33.1506 29.5273 33.2382 29.609 33.3427 29.6629C33.4473 29.7168 33.5646 29.741 33.6819 29.7326C33.7992 29.7243 33.912 29.6839 34.0078 29.6157C35.0977 28.84 36.0311 27.6939 36.8896 26.4056C37.97 24.7852 39.2885 22.1065 39.9499 20.7163C40.078 20.447 40.2797 20.2195 40.5318 20.0602C40.7839 19.9009 41.076 19.8164 41.3742 19.8164L45.5742 19.8164C45.7496 19.8163 45.9221 19.861 46.0753 19.9463C46.2286 20.0316 46.3575 20.1546 46.45 20.3036C46.5424 20.4527 46.5952 20.6229 46.6034 20.7981C46.6116 20.9733 46.5749 21.1476 46.4968 21.3047C45.437 23.4305 43.3727 27.3302 41.4302 29.6182C41.2462 29.836 41.1227 30.0983 41.072 30.3789C41.0213 30.6595 41.0453 30.9485 41.1416 31.2169C41.2379 31.4853 41.403 31.7236 41.6204 31.908C42.8866 32.9899 44.8634 34.9901 46.9945 38.3216C47.1121 38.504 47.1784 38.7146 47.1864 38.9314C47.1944 39.1483 47.1438 39.3632 47.04 39.5537C46.9362 39.7443 46.783 39.9033 46.5965 40.0141C46.4099 40.125 46.197 40.1835 45.98 40.1836Z" fill="rgb(0,0,0)" fill-rule="nonzero" />
</svg>
